<svg width="40" height="40" viewBox="0 0 40 40" fill="none" xmlns="http://www.w3.org/2000/svg">
<path d="M19.9987 21.6663C20.9192 21.6663 21.6654 20.9201 21.6654 19.9997C21.6654 19.0792 20.9192 18.333 19.9987 18.333C19.0782 18.333 18.332 19.0792 18.332 19.9997C18.332 20.9201 19.0782 21.6663 19.9987 21.6663Z" fill="#5D35FD"/>
<path d="M20.0012 3.33301C16.8464 3.33254 13.7563 4.22747 11.09 5.91378C8.42371 7.60008 6.2908 10.0085 4.93917 12.8591C3.58755 15.7096 3.07273 18.8853 3.45457 22.0169C3.8364 25.1485 5.0992 28.1074 7.09618 30.5497L3.82284 33.8213C3.58983 34.0544 3.43115 34.3514 3.36687 34.6746C3.30259 34.9979 3.3356 35.3329 3.46171 35.6374C3.58783 35.9419 3.8014 36.2022 4.07541 36.3853C4.34943 36.5685 4.67159 36.6663 5.00118 36.6663H20.0012C24.4215 36.6663 28.6607 34.9104 31.7863 31.7848C34.9119 28.6592 36.6679 24.4199 36.6679 19.9997C36.6679 15.5794 34.9119 11.3402 31.7863 8.21456C28.6607 5.08895 24.4215 3.33301 20.0012 3.33301ZM13.3345 21.6663C13.0049 21.6663 12.6826 21.5686 12.4086 21.3854C12.1345 21.2023 11.9209 20.942 11.7947 20.6375C11.6686 20.3329 11.6356 19.9978 11.6999 19.6745C11.7642 19.3512 11.9229 19.0542 12.156 18.8212C12.3891 18.5881 12.6861 18.4293 13.0094 18.365C13.3327 18.3007 13.6678 18.3337 13.9723 18.4599C14.2769 18.586 14.5372 18.7996 14.7203 19.0737C14.9034 19.3478 15.0012 19.67 15.0012 19.9997C15.0012 20.4417 14.8256 20.8656 14.513 21.1782C14.2005 21.4907 13.7765 21.6663 13.3345 21.6663ZM20.0012 21.6663C19.6716 21.6663 19.3493 21.5686 19.0752 21.3854C18.8012 21.2023 18.5875 20.942 18.4614 20.6375C18.3352 20.3329 18.3022 19.9978 18.3665 19.6745C18.4309 19.3512 18.5896 19.0542 18.8227 18.8212C19.0558 18.5881 19.3527 18.4293 19.676 18.365C19.9993 18.3007 20.3344 18.3337 20.639 18.4599C20.9435 18.586 21.2038 18.7996 21.387 19.0737C21.5701 19.3478 21.6679 19.67 21.6679 19.9997C21.6679 20.4417 21.4923 20.8656 21.1797 21.1782C20.8671 21.4907 20.4432 21.6663 20.0012 21.6663ZM26.6679 21.6663C26.3382 21.6663 26.016 21.5686 25.7419 21.3854C25.4678 21.2023 25.2542 20.942 25.1281 20.6375C25.0019 20.3329 24.9689 19.9978 25.0332 19.6745C25.0975 19.3512 25.2563 19.0542 25.4893 18.8212C25.7224 18.5881 26.0194 18.4293 26.3427 18.365C26.666 18.3007 27.0011 18.3337 27.3057 18.4599C27.6102 18.586 27.8705 18.7996 28.0536 19.0737C28.2368 19.3478 28.3345 19.67 28.3345 19.9997C28.3345 20.4417 28.1589 20.8656 27.8464 21.1782C27.5338 21.4907 27.1099 21.6663 26.6679 21.6663Z" fill="#B2B1FF"/>
<path d="M13.3346 21.6663C14.2551 21.6663 15.0013 20.9201 15.0013 19.9997C15.0013 19.0792 14.2551 18.333 13.3346 18.333C12.4142 18.333 11.668 19.0792 11.668 19.9997C11.668 20.9201 12.4142 21.6663 13.3346 21.6663Z" fill="#5D35FD"/>
<path d="M26.6667 21.6663C27.5871 21.6663 28.3333 20.9201 28.3333 19.9997C28.3333 19.0792 27.5871 18.333 26.6667 18.333C25.7462 18.333 25 19.0792 25 19.9997C25 20.9201 25.7462 21.6663 26.6667 21.6663Z" fill="#5D35FD"/>
</svg>
